<svg width="84" height="62" viewBox="0 0 84 62" fill="none" xmlns="http://www.w3.org/2000/svg">
<path d="M20.46 61.3799C16.94 61.3799 13.86 60.7199 11.22 59.3999C8.58 57.9333 6.45333 56.0266 4.84 53.6799C3.37333 51.3333 2.2 48.5466 1.32 45.3199C0.44 42.0933 4.61936e-07 38.7199 4.61936e-07 35.1999C4.61936e-07 28.0133 1.83333 21.2666 5.5 14.9599C9.31333 8.65327 15.18 3.6666 23.1 -7.12872e-05L25.08 3.95993C20.9733 5.8666 17.3067 8.65327 14.08 12.3199C11 15.8399 9.16667 19.5799 8.58 23.5399C7.7 26.6199 7.62667 29.6266 8.36 32.5599C11.5867 29.0399 15.9133 27.2799 21.34 27.2799C26.3267 27.2799 30.4333 28.8199 33.66 31.8999C36.8867 34.8333 38.5 38.9399 38.5 44.2199C38.5 49.3533 36.8133 53.5333 33.44 56.7599C30.0667 59.8399 25.74 61.3799 20.46 61.3799ZM65.78 61.3799C62.26 61.3799 59.18 60.7199 56.54 59.3999C53.9 57.9333 51.7733 56.0266 50.16 53.6799C48.6933 51.3333 47.52 48.5466 46.64 45.3199C45.76 42.0933 45.32 38.7199 45.32 35.1999C45.32 28.0133 47.1533 21.2666 50.82 14.9599C54.6333 8.65327 60.5 3.6666 68.42 -7.12872e-05L70.4 3.95993C66.2933 5.8666 62.6267 8.65327 59.4 12.3199C56.32 15.8399 54.4867 19.5799 53.9 23.5399C53.02 26.6199 52.9467 29.6266 53.68 32.5599C56.9067 29.0399 61.2333 27.2799 66.66 27.2799C71.6467 27.2799 75.7533 28.8199 78.98 31.8999C82.2067 34.8333 83.82 38.9399 83.82 44.2199C83.82 49.3533 82.1333 53.5333 78.76 56.7599C75.3867 59.8399 71.06 61.3799 65.78 61.3799Z" fill="#603809"/>
</svg>
