<svg width="137" height="29" viewBox="0 0 137 29" fill="none" xmlns="http://www.w3.org/2000/svg">
<path d="M9.31396 24.2847C8.66455 22.6782 8.20882 21.1401 7.94678 19.6704C7.68473 18.2007 7.55371 16.8107 7.55371 15.5005C7.55371 15.3068 7.55371 15.1131 7.55371 14.9194C7.55371 14.7257 7.5651 14.5321 7.58789 14.3384C6.83594 14.2472 6.26058 14.0934 5.86182 13.877C5.47445 13.6491 5.28076 13.37 5.28076 13.0396C5.28076 12.7091 5.50863 12.4357 5.96436 12.2192C6.43148 12.0028 7.0695 11.849 7.87842 11.7578C8.06071 10.6413 8.29997 9.63298 8.59619 8.73291C8.89242 7.83285 9.17725 7.0695 9.45068 6.44287C9.73551 5.80485 9.98047 5.31494 10.1855 4.97314C10.3906 4.61995 10.4932 4.43197 10.4932 4.40918L11.1255 4.61426C11.0799 4.75098 10.9945 5.00163 10.8691 5.36621C10.7552 5.7194 10.6185 6.19222 10.459 6.78467C10.3109 7.36572 10.1571 8.06641 9.99756 8.88672C9.83805 9.69564 9.70133 10.6185 9.5874 11.6553H9.62158C10.4875 11.6553 11.342 11.7008 12.1851 11.792C13.0282 11.8717 13.8428 12.0085 14.6289 12.2021C15.1644 11.9059 15.6657 11.5698 16.1328 11.1938C16.5999 10.8065 17.0044 10.3849 17.3462 9.9292C17.6994 9.46208 17.9728 8.96077 18.1665 8.42529C18.3716 7.87842 18.4741 7.29736 18.4741 6.68213C18.4741 5.82764 18.326 5.08708 18.0298 4.46045C17.7336 3.83382 17.3519 3.29834 16.8848 2.854C16.429 2.39827 15.9106 2.02799 15.3296 1.74316C14.7485 1.45833 14.1732 1.23617 13.6035 1.07666C13.0452 0.917155 12.5212 0.808919 12.0312 0.751953C11.5413 0.683594 11.1483 0.649414 10.8521 0.649414C9.74691 0.649414 8.73861 0.751953 7.82715 0.957031C6.91569 1.15072 6.09538 1.40137 5.36621 1.70898C4.64844 2.00521 4.02181 2.32992 3.48633 2.68311C2.95085 3.0249 2.50651 3.34961 2.15332 3.65723C1.80013 3.95345 1.53239 4.2041 1.3501 4.40918C1.1792 4.60286 1.08805 4.7054 1.07666 4.7168L0.563965 4.28955C0.586751 4.25537 0.694987 4.12435 0.888672 3.89648C1.09375 3.66862 1.38428 3.40088 1.76025 3.09326C2.14762 2.77425 2.62044 2.43245 3.17871 2.06787C3.73698 1.70329 4.38639 1.37288 5.12695 1.07666C5.86751 0.769043 6.69352 0.512695 7.60498 0.307617C8.52783 0.102539 9.54183 0 10.647 0C11.3875 0 12.1452 0.0512695 12.9199 0.153809C13.7061 0.244954 14.4637 0.398763 15.1929 0.615234C15.9334 0.831706 16.6341 1.11084 17.2949 1.45264C17.9557 1.79443 18.5311 2.21029 19.021 2.7002C19.5109 3.1901 19.8983 3.75977 20.1831 4.40918C20.4679 5.05859 20.6104 5.79346 20.6104 6.61377C20.6104 7.16064 20.5021 7.70752 20.2856 8.25439C20.0692 8.80127 19.7616 9.33675 19.3628 9.86084C18.964 10.3849 18.4855 10.8805 17.9272 11.3477C17.369 11.8148 16.748 12.242 16.0645 12.6294C16.8278 12.9028 17.5342 13.2389 18.1836 13.6377C18.833 14.0251 19.3913 14.4865 19.8584 15.022C20.3255 15.5461 20.6901 16.1442 20.9521 16.8164C21.2142 17.4886 21.3452 18.2406 21.3452 19.0723C21.3452 19.9609 21.1857 20.804 20.8667 21.6016C20.5477 22.3991 20.0977 23.134 19.5166 23.8062C18.9469 24.4784 18.2633 25.0822 17.4658 25.6177C16.6683 26.1646 15.791 26.626 14.834 27.002C13.877 27.3779 12.8516 27.6628 11.7578 27.8564C10.6755 28.0615 9.55892 28.1641 8.4082 28.1641C6.96126 28.1641 5.70801 27.9932 4.64844 27.6514C3.60026 27.321 2.72868 26.8766 2.03369 26.3184C1.3501 25.7601 0.837402 25.1221 0.495605 24.4043C0.165202 23.6751 0 22.9232 0 22.1484C0 21.6471 0.074056 21.1743 0.222168 20.73C0.381673 20.2743 0.598145 19.8584 0.871582 19.4824C1.15641 19.0951 1.49821 18.759 1.89697 18.4741C2.29574 18.1779 2.74577 17.9443 3.24707 17.7734L3.46924 18.3032C3.0363 18.4627 2.67171 18.702 2.37549 19.021C2.09066 19.34 1.8571 19.6875 1.6748 20.0635C1.50391 20.4395 1.37858 20.8211 1.29883 21.2085C1.23047 21.5959 1.19629 21.932 1.19629 22.2168C1.19629 22.5586 1.24186 22.9289 1.33301 23.3276C1.42415 23.7264 1.57796 24.1195 1.79443 24.5068C2.0109 24.8942 2.29574 25.2702 2.64893 25.6348C3.01351 25.9993 3.46354 26.3184 3.99902 26.5918C4.53451 26.8652 5.16683 27.0817 5.896 27.2412C6.62516 27.4121 7.46257 27.4976 8.4082 27.4976C9.13737 27.4976 9.91781 27.4178 10.7495 27.2583C11.5812 27.1102 12.4015 26.8823 13.2104 26.5747C14.0194 26.2671 14.7941 25.8854 15.5347 25.4297C16.2752 24.974 16.9303 24.4385 17.5 23.8232C18.0697 23.208 18.5197 22.5187 18.8501 21.7554C19.1919 20.992 19.3628 20.1546 19.3628 19.2432C19.3628 18.4229 19.2489 17.6937 19.021 17.0557C18.7931 16.4176 18.4741 15.8537 18.064 15.3638C17.6652 14.8739 17.1981 14.458 16.6626 14.1162C16.1271 13.763 15.5518 13.4668 14.9365 13.2275C14.0934 13.5921 13.2048 13.8826 12.2705 14.0991C11.3477 14.3042 10.3849 14.4067 9.38232 14.4067C9.35954 14.8055 9.34245 15.2214 9.33105 15.6543C9.31966 16.0758 9.31396 16.5145 9.31396 16.9702C9.31396 18.064 9.37093 19.209 9.48486 20.4053C9.5988 21.6016 9.764 22.8605 9.98047 24.1821L9.31396 24.2847ZM9.4165 13.7061C10.0203 13.6833 10.6698 13.5978 11.3647 13.4497C12.0711 13.2902 12.7718 13.0623 13.4668 12.7661C12.8174 12.6066 12.1623 12.4927 11.5015 12.4243C10.8521 12.3446 10.2254 12.3047 9.62158 12.3047H9.51904C9.49626 12.5326 9.47917 12.7661 9.46777 13.0054C9.45638 13.2332 9.43929 13.4668 9.4165 13.7061ZM5.98145 13.0737C5.98145 13.1535 6.10677 13.2503 6.35742 13.3643C6.60807 13.4782 7.02962 13.5693 7.62207 13.6377C7.64486 13.4326 7.66764 13.2275 7.69043 13.0225C7.71322 12.8174 7.7417 12.618 7.77588 12.4243C7.12646 12.5155 6.66504 12.6294 6.3916 12.7661C6.11816 12.9028 5.98145 13.0054 5.98145 13.0737ZM28.4204 24.8828C27.8394 24.8828 27.2811 24.7803 26.7456 24.5752C26.2101 24.3701 25.7373 24.0625 25.3271 23.6523C24.9284 23.2308 24.6094 22.7067 24.3701 22.0801C24.1309 21.4535 24.0112 20.7186 24.0112 19.8755C24.0112 18.8501 24.1593 17.9386 24.4556 17.1411C24.7518 16.3322 25.1278 15.6543 25.5835 15.1074C26.0506 14.5492 26.569 14.1276 27.1387 13.8428C27.7083 13.5465 28.2666 13.3984 28.8135 13.3984C29.5199 13.3984 30.0781 13.632 30.4883 14.0991C30.9098 14.5662 31.1206 15.1701 31.1206 15.9106C31.1206 16.5487 31.001 17.1297 30.7617 17.6538C30.5225 18.1665 30.2035 18.6108 29.8047 18.9868C29.4173 19.3514 28.9673 19.6362 28.4546 19.8413C27.9533 20.0464 27.4292 20.1489 26.8823 20.1489C26.6203 20.1489 26.3696 20.1375 26.1304 20.1147C25.9025 20.0806 25.6974 20.0464 25.5151 20.0122C25.5835 20.7186 25.7202 21.3281 25.9253 21.8408C26.1304 22.3535 26.3867 22.7751 26.6943 23.1055C27.002 23.4359 27.3438 23.6808 27.7197 23.8403C28.1071 23.9998 28.5059 24.0796 28.916 24.0796C29.4287 24.0796 29.9015 23.9543 30.3345 23.7036C30.7674 23.453 31.1662 23.1283 31.5308 22.7295C31.8953 22.3193 32.2257 21.8522 32.522 21.3281C32.8296 20.804 33.103 20.2743 33.3423 19.7388C33.5815 19.1919 33.7923 18.6621 33.9746 18.1494C34.1683 17.6253 34.3392 17.1639 34.4873 16.7651L35.1538 16.936C35.0057 17.312 34.8291 17.7677 34.624 18.3032C34.4303 18.8387 34.2025 19.4027 33.9404 19.9951C33.6784 20.5762 33.3708 21.1629 33.0176 21.7554C32.6644 22.3364 32.2656 22.8605 31.8213 23.3276C31.377 23.7834 30.87 24.1593 30.3003 24.4556C29.742 24.7404 29.1154 24.8828 28.4204 24.8828ZM28.8477 14.0649C28.4261 14.0649 28.0103 14.2017 27.6001 14.4751C27.2013 14.7371 26.8424 15.1017 26.5234 15.5688C26.2044 16.036 25.9424 16.5885 25.7373 17.2266C25.5436 17.8646 25.4468 18.5482 25.4468 19.2773C25.5949 19.3343 25.8 19.3856 26.062 19.4312C26.3354 19.4653 26.6659 19.4824 27.0532 19.4824C27.4634 19.4824 27.8678 19.397 28.2666 19.2261C28.6768 19.0438 29.0413 18.7988 29.3604 18.4912C29.6908 18.1722 29.9528 17.7962 30.1465 17.3633C30.3516 16.9303 30.4541 16.4575 30.4541 15.9448C30.4541 15.6942 30.4199 15.4549 30.3516 15.2271C30.2832 14.9992 30.1807 14.7998 30.0439 14.6289C29.9072 14.458 29.7363 14.3213 29.5312 14.2188C29.3376 14.1162 29.1097 14.0649 28.8477 14.0649ZM47.6465 16.936C47.1794 18.2007 46.7521 19.2603 46.3647 20.1147C45.9888 20.9692 45.6185 21.6585 45.2539 22.1826C44.9007 22.7067 44.5475 23.0827 44.1943 23.3105C43.8411 23.5384 43.4538 23.6523 43.0322 23.6523C42.5195 23.6523 42.0809 23.4757 41.7163 23.1226C41.3517 22.758 41.1239 22.1997 41.0327 21.4478C40.6681 22.2339 40.1953 22.8776 39.6143 23.3789C39.0332 23.8688 38.304 24.1138 37.4268 24.1138C36.9596 24.1138 36.5096 24.0283 36.0767 23.8574C35.6551 23.6865 35.2791 23.4245 34.9487 23.0713C34.6183 22.7067 34.3506 22.251 34.1455 21.7041C33.9518 21.1572 33.855 20.5135 33.855 19.7729C33.855 19.021 33.9461 18.3146 34.1284 17.6538C34.3221 16.993 34.5728 16.3892 34.8804 15.8423C35.188 15.284 35.5412 14.7884 35.9399 14.3555C36.3501 13.9225 36.7716 13.5579 37.2046 13.2617C37.6375 12.9655 38.0705 12.7376 38.5034 12.5781C38.9364 12.4186 39.3351 12.3389 39.6997 12.3389C40.0187 12.3389 40.3263 12.3787 40.6226 12.4585C40.9188 12.5382 41.1808 12.6693 41.4087 12.8516C41.6479 13.0225 41.8359 13.256 41.9727 13.5522C42.1208 13.8485 42.1948 14.2188 42.1948 14.6631C42.1948 15.1872 42.0923 15.6429 41.8872 16.0303C41.6935 16.4176 41.4543 16.7424 41.1694 17.0044C40.896 17.2664 40.6112 17.4772 40.3149 17.6367C40.0301 17.7962 39.8022 17.9102 39.6313 17.9785L39.4263 17.312C39.4604 17.312 39.5858 17.2664 39.8022 17.1753C40.0301 17.0841 40.2637 16.936 40.5029 16.731C40.7536 16.5145 40.9814 16.241 41.1865 15.9106C41.3916 15.5802 41.4941 15.1758 41.4941 14.6973C41.4941 14.1504 41.3403 13.7345 41.0327 13.4497C40.7251 13.1535 40.332 13.0054 39.8535 13.0054C39.4889 13.0054 39.0617 13.1364 38.5718 13.3984C38.0819 13.6605 37.609 14.0706 37.1533 14.6289C36.709 15.1872 36.3273 15.8936 36.0083 16.748C35.7007 17.6025 35.5469 18.6222 35.5469 19.8071C35.5469 20.9806 35.752 21.875 36.1621 22.4902C36.5837 23.1055 37.1476 23.4131 37.854 23.4131C38.2072 23.4131 38.5433 23.3162 38.8623 23.1226C39.1927 22.9175 39.4946 22.6497 39.7681 22.3193C40.0415 21.9889 40.2865 21.6073 40.5029 21.1743C40.7194 20.73 40.9074 20.2743 41.0669 19.8071C41.0669 19.4425 41.1068 19.0153 41.1865 18.5254C41.2777 18.0241 41.4144 17.5171 41.5967 17.0044L42.6392 17.3462C42.5822 17.4943 42.5252 17.688 42.4683 17.9272C42.4113 18.1665 42.3543 18.4285 42.2974 18.7134C42.2518 18.9982 42.2119 19.2944 42.1777 19.6021C42.1436 19.8983 42.1265 20.1888 42.1265 20.4736C42.1265 21.3623 42.2119 21.9775 42.3828 22.3193C42.5651 22.6497 42.8727 22.8149 43.3057 22.8149C43.5563 22.8149 43.8013 22.7238 44.0405 22.5415C44.2912 22.3592 44.5589 22.0402 44.8438 21.5845C45.1286 21.1287 45.4419 20.5135 45.7837 19.7388C46.1255 18.9526 46.5243 17.9614 46.98 16.7651L47.6465 16.936ZM46.9971 16.7651C47.168 16.3208 47.3503 15.8993 47.5439 15.5005C47.749 15.0903 47.9655 14.7314 48.1934 14.4238C48.4212 14.1162 48.6662 13.8713 48.9282 13.689C49.2017 13.4953 49.5036 13.3984 49.834 13.3984C49.9935 13.3984 50.1758 13.4326 50.3809 13.501C50.5859 13.5693 50.7796 13.7061 50.9619 13.9111C51.1556 14.1162 51.3151 14.4124 51.4404 14.7998C51.5658 15.1872 51.6284 15.6999 51.6284 16.3379C51.6284 16.6683 51.6113 17.0329 51.5771 17.4316C51.543 17.8304 51.5088 18.2235 51.4746 18.6108C51.8278 17.8589 52.1753 17.2266 52.5171 16.7139C52.8703 16.1898 53.2121 15.7739 53.5425 15.4663C53.8843 15.1473 54.2204 14.9194 54.5508 14.7827C54.8812 14.6346 55.2116 14.5605 55.542 14.5605C55.6901 14.5605 55.861 14.5947 56.0547 14.6631C56.2598 14.7314 56.4478 14.8511 56.6187 15.022C56.8009 15.1929 56.9491 15.4264 57.063 15.7227C57.1883 16.0189 57.251 16.4006 57.251 16.8677C57.251 17.2437 57.2225 17.6196 57.1655 17.9956C57.1086 18.3716 57.0459 18.7362 56.9775 19.0894C56.9092 19.4425 56.8465 19.7786 56.7896 20.0977C56.7326 20.4053 56.7041 20.6787 56.7041 20.918C56.7041 21.4876 56.8066 21.9263 57.0117 22.2339C57.2168 22.5301 57.5301 22.6782 57.9517 22.6782C58.2935 22.6782 58.6182 22.5529 58.9258 22.3022C59.2334 22.0402 59.5182 21.7098 59.7803 21.311C60.0537 20.9123 60.2987 20.4736 60.5151 19.9951C60.743 19.5166 60.9367 19.0609 61.0962 18.6279C61.2671 18.1836 61.4095 17.7962 61.5234 17.4658C61.6374 17.124 61.7171 16.8905 61.7627 16.7651L62.4292 16.936C62.2697 17.3348 62.0988 17.7791 61.9165 18.269C61.7456 18.7476 61.5519 19.2318 61.3354 19.7217C61.119 20.2116 60.8854 20.6901 60.6348 21.1572C60.3841 21.613 60.105 22.0174 59.7974 22.3706C59.4897 22.7238 59.1536 23.0086 58.7891 23.2251C58.4359 23.4416 58.0428 23.5498 57.6099 23.5498C57.2453 23.5498 56.9263 23.4814 56.6528 23.3447C56.3908 23.1966 56.1686 23.0029 55.9863 22.7637C55.804 22.5244 55.6673 22.2396 55.5762 21.9092C55.485 21.5788 55.4395 21.2256 55.4395 20.8496C55.4395 20.4281 55.4736 19.9951 55.542 19.5508C55.6217 19.1064 55.7015 18.6792 55.7812 18.269C55.8724 17.8589 55.9521 17.4829 56.0205 17.1411C56.1003 16.7879 56.1401 16.4974 56.1401 16.2695C56.1401 15.9163 56.0718 15.6543 55.9351 15.4834C55.7983 15.3011 55.6104 15.21 55.3711 15.21C55.0407 15.21 54.716 15.3296 54.397 15.5688C54.0894 15.8081 53.7874 16.1271 53.4912 16.5259C53.2064 16.9246 52.9329 17.3804 52.6709 17.8931C52.4089 18.4058 52.1639 18.9355 51.936 19.4824C51.7196 20.0179 51.5145 20.5534 51.3208 21.0889C51.1385 21.6243 50.979 22.1086 50.8423 22.5415C50.7056 22.9744 50.5859 23.3447 50.4834 23.6523C50.3923 23.9486 50.3296 24.1366 50.2954 24.2163L49.3042 24.0454C49.4409 23.3732 49.5662 22.6668 49.6802 21.9263C49.7941 21.1743 49.891 20.4395 49.9707 19.7217C50.0618 18.9925 50.1302 18.2975 50.1758 17.6367C50.2327 16.9759 50.2612 16.3892 50.2612 15.8765C50.2612 15.1815 50.2157 14.7144 50.1245 14.4751C50.0334 14.2244 49.8682 14.0991 49.6289 14.0991C49.4238 14.0991 49.2301 14.1789 49.0479 14.3384C48.8656 14.4865 48.6947 14.6916 48.5352 14.9536C48.387 15.2043 48.2389 15.5005 48.0908 15.8423C47.9427 16.1841 47.8003 16.5487 47.6636 16.936L46.9971 16.7651ZM72.9224 7.38281C72.9224 8.02083 73.0534 8.59619 73.3154 9.10889C73.5775 9.61019 73.9307 10.0716 74.375 10.4932C74.8193 10.9033 75.3377 11.285 75.9302 11.6382C76.534 11.98 77.172 12.3161 77.8442 12.6465C78.5164 12.9655 79.2057 13.2845 79.9121 13.6035C80.6299 13.9111 81.3249 14.2415 81.9971 14.5947C82.6693 14.9365 83.3016 15.3125 83.894 15.7227C84.4979 16.1214 85.022 16.5715 85.4663 17.0728C85.9106 17.5627 86.2638 18.1152 86.5259 18.7305C86.7879 19.3343 86.9189 20.0179 86.9189 20.7812C86.9189 22.1712 86.6569 23.3789 86.1328 24.4043C85.6087 25.4183 84.908 26.2557 84.0308 26.9165C83.1535 27.5887 82.1338 28.0843 80.9717 28.4033C79.8096 28.7337 78.5962 28.8989 77.3315 28.8989C76.215 28.8989 75.1611 28.7508 74.1699 28.4546C73.1787 28.1698 72.3071 27.7653 71.5552 27.2412C70.8032 26.7285 70.2051 26.1076 69.7607 25.3784C69.3278 24.6606 69.1113 23.8745 69.1113 23.02C69.1113 22.2681 69.2253 21.63 69.4531 21.106C69.6924 20.5705 69.9487 20.1318 70.2222 19.79C70.507 19.4482 70.7747 19.1976 71.0254 19.0381C71.276 18.8786 71.4185 18.7931 71.4526 18.7817L71.8286 19.585C71.8058 19.5964 71.6976 19.6704 71.5039 19.8071C71.3102 19.9325 71.0994 20.1318 70.8716 20.4053C70.6551 20.6787 70.45 21.0319 70.2563 21.4648C70.0741 21.8864 69.9829 22.4048 69.9829 23.02C69.9829 23.6353 70.0968 24.1878 70.3247 24.6777C70.564 25.1562 70.8773 25.5778 71.2646 25.9424C71.6634 26.307 72.1134 26.6203 72.6147 26.8823C73.1274 27.1444 73.6572 27.3551 74.2041 27.5146C74.751 27.6855 75.2979 27.8052 75.8447 27.8735C76.3916 27.9533 76.8986 27.9932 77.3657 27.9932C78.5734 27.9932 79.6672 27.8394 80.647 27.5317C81.6268 27.2355 82.4585 26.8197 83.1421 26.2842C83.8371 25.7601 84.3726 25.1506 84.7485 24.4556C85.1245 23.7492 85.3125 22.9915 85.3125 22.1826C85.3125 21.2712 85.1188 20.485 84.7314 19.8242C84.3441 19.1634 83.8314 18.5824 83.1934 18.0811C82.5553 17.5684 81.8262 17.1126 81.0059 16.7139C80.1969 16.3037 79.3652 15.9049 78.5107 15.5176C77.6676 15.1302 76.8359 14.7257 76.0156 14.3042C75.2067 13.8713 74.4832 13.3757 73.8452 12.8174C73.2072 12.2591 72.6945 11.6154 72.3071 10.8862C71.9198 10.1457 71.7261 9.26839 71.7261 8.25439C71.7261 7.12646 71.9141 6.09538 72.29 5.16113C72.6774 4.22689 73.2015 3.42367 73.8623 2.75146C74.5345 2.06787 75.3206 1.54378 76.2207 1.1792C77.1208 0.803223 78.0949 0.615234 79.1431 0.615234C80.2026 0.615234 81.1312 0.74056 81.9287 0.991211C82.7262 1.23047 83.3927 1.57227 83.9282 2.0166C84.4751 2.44954 84.8796 2.97363 85.1416 3.58887C85.415 4.2041 85.5518 4.882 85.5518 5.62256C85.5518 6.2264 85.4777 6.81885 85.3296 7.3999C85.1929 7.96956 85.0391 8.48226 84.8682 8.93799C84.6973 9.39372 84.5378 9.764 84.3896 10.0488C84.2415 10.3337 84.1618 10.4932 84.1504 10.5273L83.3813 10.1001C83.3813 10.0887 83.444 9.95199 83.5693 9.68994C83.7061 9.4279 83.8542 9.0861 84.0137 8.66455C84.1732 8.243 84.3156 7.77018 84.4409 7.24609C84.5776 6.71061 84.646 6.16943 84.646 5.62256C84.646 5.00732 84.5321 4.44906 84.3042 3.94775C84.0877 3.43506 83.7516 3.00212 83.2959 2.64893C82.8402 2.29574 82.2648 2.0223 81.5698 1.82861C80.8748 1.63493 80.0545 1.53809 79.1089 1.53809C78.2316 1.53809 77.417 1.6862 76.665 1.98242C75.9131 2.26725 75.258 2.67171 74.6997 3.1958C74.1528 3.71989 73.7199 4.34082 73.4009 5.05859C73.0819 5.76497 72.9224 6.53971 72.9224 7.38281ZM94.1992 16.2354C94.1992 15.5518 94.3587 14.9593 94.6777 14.458C95.0081 13.9567 95.4297 13.4725 95.9424 13.0054C95.7829 12.9028 95.612 12.8288 95.4297 12.7832C95.2474 12.7262 95.0708 12.6978 94.8999 12.6978C94.5239 12.6978 94.1195 12.7946 93.6865 12.9883C93.265 13.1706 92.8719 13.4839 92.5073 13.9282C92.1541 14.3726 91.8579 14.9707 91.6187 15.7227C91.3794 16.4632 91.2598 17.3918 91.2598 18.5083C91.2598 19.4312 91.368 20.223 91.5845 20.8838C91.8123 21.5446 92.12 22.0915 92.5073 22.5244C92.8947 22.946 93.3447 23.2593 93.8574 23.4644C94.3701 23.658 94.917 23.7549 95.498 23.7549C96.193 23.7549 96.814 23.5783 97.3608 23.2251C97.9077 22.8605 98.409 22.3649 98.8647 21.7383C99.3205 21.1003 99.742 20.3597 100.129 19.5166C100.528 18.6621 100.921 17.745 101.309 16.7651L101.958 16.936C101.73 17.4943 101.491 18.0697 101.24 18.6621C101.001 19.2546 100.733 19.8413 100.437 20.4224C100.152 20.992 99.8332 21.5332 99.48 22.0459C99.1382 22.5586 98.7394 23.0086 98.2837 23.396C97.8394 23.7834 97.3381 24.091 96.7798 24.3188C96.2215 24.5467 95.5949 24.6606 94.8999 24.6606C94.1935 24.6606 93.5213 24.5467 92.8833 24.3188C92.2567 24.0796 91.7041 23.7264 91.2256 23.2593C90.7471 22.7808 90.3654 22.1826 90.0806 21.4648C89.7957 20.7471 89.6533 19.904 89.6533 18.9355C89.6533 17.9557 89.8128 17.0443 90.1318 16.2012C90.4622 15.3581 90.8781 14.6289 91.3794 14.0137C91.8807 13.3984 92.4333 12.9142 93.0371 12.561C93.641 12.2078 94.2163 12.0312 94.7632 12.0312C95.4012 12.0312 95.9709 12.1965 96.4722 12.5269C96.5633 12.4585 96.6488 12.3901 96.7285 12.3218C96.8197 12.242 96.9108 12.1566 97.002 12.0654L97.3779 12.5952C97.3096 12.6636 97.2412 12.7262 97.1729 12.7832C97.1045 12.8402 97.0361 12.9028 96.9678 12.9712C97.1729 13.2218 97.3381 13.5181 97.4634 13.8599C97.6001 14.2017 97.6685 14.5833 97.6685 15.0049C97.6685 15.472 97.6115 15.8879 97.4976 16.2524C97.395 16.6056 97.2469 16.9076 97.0532 17.1582C96.8709 17.4089 96.6602 17.5968 96.4209 17.7222C96.1816 17.8475 95.931 17.9102 95.6689 17.9102C95.5322 17.9102 95.3784 17.8817 95.2075 17.8247C95.0366 17.7563 94.8771 17.6595 94.729 17.5342C94.5809 17.3975 94.4556 17.2266 94.353 17.0215C94.2505 16.805 94.1992 16.543 94.1992 16.2354ZM96.9678 15.0049C96.9678 14.6745 96.9165 14.3783 96.814 14.1162C96.7228 13.8542 96.5975 13.6263 96.438 13.4326C96.0164 13.7972 95.6519 14.2074 95.3442 14.6631C95.048 15.1074 94.8999 15.6315 94.8999 16.2354C94.8999 16.5544 94.9797 16.805 95.1392 16.9873C95.2987 17.1582 95.4867 17.2437 95.7031 17.2437C95.9538 17.2437 96.1589 17.1639 96.3184 17.0044C96.4893 16.8449 96.6203 16.6512 96.7114 16.4233C96.8026 16.1841 96.8652 15.9391 96.8994 15.6885C96.945 15.4264 96.9678 15.1986 96.9678 15.0049ZM105.051 24.8828C104.47 24.8828 103.912 24.7803 103.376 24.5752C102.841 24.3701 102.368 24.0625 101.958 23.6523C101.559 23.2308 101.24 22.7067 101.001 22.0801C100.762 21.4535 100.642 20.7186 100.642 19.8755C100.642 18.8501 100.79 17.9386 101.086 17.1411C101.383 16.3322 101.759 15.6543 102.214 15.1074C102.681 14.5492 103.2 14.1276 103.77 13.8428C104.339 13.5465 104.897 13.3984 105.444 13.3984C106.151 13.3984 106.709 13.632 107.119 14.0991C107.541 14.5662 107.751 15.1701 107.751 15.9106C107.751 16.5487 107.632 17.1297 107.393 17.6538C107.153 18.1665 106.834 18.6108 106.436 18.9868C106.048 19.3514 105.598 19.6362 105.085 19.8413C104.584 20.0464 104.06 20.1489 103.513 20.1489C103.251 20.1489 103 20.1375 102.761 20.1147C102.533 20.0806 102.328 20.0464 102.146 20.0122C102.214 20.7186 102.351 21.3281 102.556 21.8408C102.761 22.3535 103.018 22.7751 103.325 23.1055C103.633 23.4359 103.975 23.6808 104.351 23.8403C104.738 23.9998 105.137 24.0796 105.547 24.0796C106.06 24.0796 106.532 23.9543 106.965 23.7036C107.398 23.453 107.797 23.1283 108.162 22.7295C108.526 22.3193 108.857 21.8522 109.153 21.3281C109.46 20.804 109.734 20.2743 109.973 19.7388C110.212 19.1919 110.423 18.6621 110.605 18.1494C110.799 17.6253 110.97 17.1639 111.118 16.7651L111.785 16.936C111.637 17.312 111.46 17.7677 111.255 18.3032C111.061 18.8387 110.833 19.4027 110.571 19.9951C110.309 20.5762 110.002 21.1629 109.648 21.7554C109.295 22.3364 108.896 22.8605 108.452 23.3276C108.008 23.7834 107.501 24.1593 106.931 24.4556C106.373 24.7404 105.746 24.8828 105.051 24.8828ZM105.479 14.0649C105.057 14.0649 104.641 14.2017 104.231 14.4751C103.832 14.7371 103.473 15.1017 103.154 15.5688C102.835 16.036 102.573 16.5885 102.368 17.2266C102.174 17.8646 102.078 18.5482 102.078 19.2773C102.226 19.3343 102.431 19.3856 102.693 19.4312C102.966 19.4653 103.297 19.4824 103.684 19.4824C104.094 19.4824 104.499 19.397 104.897 19.2261C105.308 19.0438 105.672 18.7988 105.991 18.4912C106.322 18.1722 106.584 17.7962 106.777 17.3633C106.982 16.9303 107.085 16.4575 107.085 15.9448C107.085 15.6942 107.051 15.4549 106.982 15.2271C106.914 14.9992 106.812 14.7998 106.675 14.6289C106.538 14.458 106.367 14.3213 106.162 14.2188C105.968 14.1162 105.741 14.0649 105.479 14.0649ZM111.118 16.7651C111.289 16.3208 111.471 15.8993 111.665 15.5005C111.87 15.0903 112.087 14.7314 112.314 14.4238C112.542 14.1162 112.787 13.8713 113.049 13.689C113.323 13.4953 113.625 13.3984 113.955 13.3984C114.115 13.3984 114.297 13.4326 114.502 13.501C114.707 13.5693 114.901 13.7061 115.083 13.9111C115.277 14.1162 115.436 14.4124 115.562 14.7998C115.687 15.1872 115.75 15.6999 115.75 16.3379C115.75 16.6683 115.732 17.0329 115.698 17.4316C115.664 17.8304 115.63 18.2235 115.596 18.6108C115.949 17.8589 116.296 17.2266 116.638 16.7139C116.991 16.1898 117.333 15.7739 117.664 15.4663C118.005 15.1473 118.341 14.9194 118.672 14.7827C119.002 14.6346 119.333 14.5605 119.663 14.5605C119.811 14.5605 119.982 14.5947 120.176 14.6631C120.381 14.7314 120.569 14.8511 120.74 15.022C120.922 15.1929 121.07 15.4264 121.184 15.7227C121.309 16.0189 121.372 16.4006 121.372 16.8677C121.372 17.2437 121.344 17.6196 121.287 17.9956C121.23 18.3716 121.167 18.7362 121.099 19.0894C121.03 19.4425 120.968 19.7786 120.911 20.0977C120.854 20.4053 120.825 20.6787 120.825 20.918C120.825 21.4876 120.928 21.9263 121.133 22.2339C121.338 22.5301 121.651 22.6782 122.073 22.6782C122.415 22.6782 122.739 22.5529 123.047 22.3022C123.354 22.0402 123.639 21.7098 123.901 21.311C124.175 20.9123 124.42 20.4736 124.636 19.9951C124.864 19.5166 125.058 19.0609 125.217 18.6279C125.388 18.1836 125.531 17.7962 125.645 17.4658C125.758 17.124 125.838 16.8905 125.884 16.7651L126.55 16.936C126.391 17.3348 126.22 17.7791 126.038 18.269C125.867 18.7476 125.673 19.2318 125.457 19.7217C125.24 20.2116 125.007 20.6901 124.756 21.1572C124.505 21.613 124.226 22.0174 123.918 22.3706C123.611 22.7238 123.275 23.0086 122.91 23.2251C122.557 23.4416 122.164 23.5498 121.731 23.5498C121.366 23.5498 121.047 23.4814 120.774 23.3447C120.512 23.1966 120.29 23.0029 120.107 22.7637C119.925 22.5244 119.788 22.2396 119.697 21.9092C119.606 21.5788 119.561 21.2256 119.561 20.8496C119.561 20.4281 119.595 19.9951 119.663 19.5508C119.743 19.1064 119.823 18.6792 119.902 18.269C119.993 17.8589 120.073 17.4829 120.142 17.1411C120.221 16.7879 120.261 16.4974 120.261 16.2695C120.261 15.9163 120.193 15.6543 120.056 15.4834C119.919 15.3011 119.731 15.21 119.492 15.21C119.162 15.21 118.837 15.3296 118.518 15.5688C118.21 15.8081 117.909 16.1271 117.612 16.5259C117.327 16.9246 117.054 17.3804 116.792 17.8931C116.53 18.4058 116.285 18.9355 116.057 19.4824C115.841 20.0179 115.636 20.5534 115.442 21.0889C115.26 21.6243 115.1 22.1086 114.963 22.5415C114.827 22.9744 114.707 23.3447 114.604 23.6523C114.513 23.9486 114.451 24.1366 114.417 24.2163L113.425 24.0454C113.562 23.3732 113.687 22.6668 113.801 21.9263C113.915 21.1743 114.012 20.4395 114.092 19.7217C114.183 18.9925 114.251 18.2975 114.297 17.6367C114.354 16.9759 114.382 16.3892 114.382 15.8765C114.382 15.1815 114.337 14.7144 114.246 14.4751C114.154 14.2244 113.989 14.0991 113.75 14.0991C113.545 14.0991 113.351 14.1789 113.169 14.3384C112.987 14.4865 112.816 14.6916 112.656 14.9536C112.508 15.2043 112.36 15.5005 112.212 15.8423C112.064 16.1841 111.921 16.5487 111.785 16.936L111.118 16.7651ZM129.626 24.8828C129.045 24.8828 128.487 24.7803 127.952 24.5752C127.416 24.3701 126.943 24.0625 126.533 23.6523C126.134 23.2308 125.815 22.7067 125.576 22.0801C125.337 21.4535 125.217 20.7186 125.217 19.8755C125.217 18.8501 125.365 17.9386 125.662 17.1411C125.958 16.3322 126.334 15.6543 126.79 15.1074C127.257 14.5492 127.775 14.1276 128.345 13.8428C128.914 13.5465 129.473 13.3984 130.02 13.3984C130.726 13.3984 131.284 13.632 131.694 14.0991C132.116 14.5662 132.327 15.1701 132.327 15.9106C132.327 16.5487 132.207 17.1297 131.968 17.6538C131.729 18.1665 131.41 18.6108 131.011 18.9868C130.623 19.3514 130.173 19.6362 129.661 19.8413C129.159 20.0464 128.635 20.1489 128.088 20.1489C127.826 20.1489 127.576 20.1375 127.336 20.1147C127.109 20.0806 126.903 20.0464 126.721 20.0122C126.79 20.7186 126.926 21.3281 127.131 21.8408C127.336 22.3535 127.593 22.7751 127.9 23.1055C128.208 23.4359 128.55 23.6808 128.926 23.8403C129.313 23.9998 129.712 24.0796 130.122 24.0796C130.635 24.0796 131.108 23.9543 131.541 23.7036C131.973 23.453 132.372 23.1283 132.737 22.7295C133.101 22.3193 133.432 21.8522 133.728 21.3281C134.036 20.804 134.309 20.2743 134.548 19.7388C134.788 19.1919 134.998 18.6621 135.181 18.1494C135.374 17.6253 135.545 17.1639 135.693 16.7651L136.36 16.936C136.212 17.312 136.035 17.7677 135.83 18.3032C135.636 18.8387 135.409 19.4027 135.146 19.9951C134.884 20.5762 134.577 21.1629 134.224 21.7554C133.87 22.3364 133.472 22.8605 133.027 23.3276C132.583 23.7834 132.076 24.1593 131.506 24.4556C130.948 24.7404 130.321 24.8828 129.626 24.8828ZM130.054 14.0649C129.632 14.0649 129.216 14.2017 128.806 14.4751C128.407 14.7371 128.049 15.1017 127.729 15.5688C127.41 16.036 127.148 16.5885 126.943 17.2266C126.75 17.8646 126.653 18.5482 126.653 19.2773C126.801 19.3343 127.006 19.3856 127.268 19.4312C127.542 19.4653 127.872 19.4824 128.259 19.4824C128.669 19.4824 129.074 19.397 129.473 19.2261C129.883 19.0438 130.247 18.7988 130.566 18.4912C130.897 18.1722 131.159 17.7962 131.353 17.3633C131.558 16.9303 131.66 16.4575 131.66 15.9448C131.66 15.6942 131.626 15.4549 131.558 15.2271C131.489 14.9992 131.387 14.7998 131.25 14.6289C131.113 14.458 130.942 14.3213 130.737 14.2188C130.544 14.1162 130.316 14.0649 130.054 14.0649Z" fill="white"/>
</svg>
